Coordinates
version=1
nRows=9
nColumns=36
inDegrees=yes

Units are S.I. units (second, meters, Newtons, ...)
If the header above contains a line with 'inDegrees', this indicates whether rotational values are in degrees (yes) or radians (no).

endheader
time	pelvis_tilt	pelvis_list	pelvis_rotation	pelvis_tx	pelvis_ty	pelvis_tz	hip_flexion_r	hip_adduction_r	hip_rotation_r	knee_angle_r	knee_angle_r_beta	ankle_angle_r	subtalar_angle_r	mtp_angle_r	hip_flexion_l	hip_adduction_l	hip_rotation_l	knee_angle_l	knee_angle_l_beta	ankle_angle_l	subtalar_angle_l	mtp_angle_l	lumbar_extension	lumbar_bending	lumbar_rotation	arm_flex_r	arm_add_r	arm_rot_r	elbow_flex_r	pro_sup_r	arm_flex_l	arm_add_l	arm_rot_l	elbow_flex_l	pro_sup_l
      2.00000000	     -7.24285039	      5.45491170	     -2.51757515	      0.05079569	      0.75649150	      0.09473017	     45.92493482	      8.22491974	     -1.15878572	     74.00189296	      1.29157668	     29.09148518	    -23.88337589	     -7.49999987	     51.07005507	     -4.60949427	    -10.13253461	      0.53175536	      0.00928088	    -25.54637008	     -7.93063669	     -7.49999987	    -26.01261251	      1.36356868	     -6.03567575	     57.24071689	      9.73817983	     68.90364856	    131.05647617	     93.49884141	     69.51362850	     22.22533201	     69.80602093	    125.47375804	     74.17223214
      2.01666670	     -7.60894874	      5.72986506	     -2.51484189	      0.04736165	      0.76078954	      0.09291076	     46.30862146	      7.97611634	     -0.68175114	     73.44205884	      1.28180574	     28.04907609	    -24.80977616	     -7.49999987	     51.43458065	     -4.39421535	    -10.31223949	      0.50028111	      0.00873155	    -26.23994813	     -8.54602774	     -7.49999987	    -25.86966057	      1.41392841	     -6.11328343	     56.44605761	     10.01827172	     69.09301421	    131.36751111	     93.57936744	     69.53659446	     22.23765599	     69.71185885	    126.00150984	     74.17669240
      2.03333330	     -7.71066740	      5.81830491	     -2.65574094	      0.04858541	      0.76469956	      0.09359609	     46.04146957	      7.89281828	     -0.39657115	     72.56591269	      1.26651410	     27.60462963	    -24.61402971	     -7.49999987	     51.60505688	     -4.45307070	    -10.37050194	      0.50616410	      0.00883423	    -26.24952940	     -8.70244069	     -7.49999987	    -25.88571267	      1.54201712	     -5.90585485	     56.24290503	     10.08298004	     68.84778485	    131.48546391	     93.57167105	     69.45694444	     22.35843817	     69.50883072	    126.20770711	     74.17745394
      2.05000000	     -7.47248886	      5.89414548	     -2.80820717	      0.04955992	      0.77087877	      0.09335634	     45.29661297	      7.76035943	     -0.04158007	     71.53820813	      1.24857727	     25.85690726	    -25.46198090	     -7.49999987	     51.11967187	     -4.57360615	     -9.69779645	      0.67140452	      0.01171822	    -26.66305259	     -9.46370499	     -7.49999987	    -25.98751429	      1.63537651	     -5.44985029	     55.90763168	      9.96145056	     67.62596474	    131.61081602	     93.51415081	     69.35169042	     22.46395069	     68.95973457	    126.30025192	     74.21843530
      2.06666670	     -7.45731354	      6.08388747	     -3.07064983	      0.05299280	      0.77790489	      0.09483656	     44.16031585	      7.65256636	      0.34696611	     69.95550328	      1.22095386	     25.32295765	    -25.18900783	     -7.49999987	     50.72571625	     -4.67194399	     -9.35157097	      0.71349986	      0.01245292	    -26.62501835	    -10.23242171	     -7.49999987	    -25.63890312	      1.28935593	     -5.21145023	     55.54972027	      9.89838744	     67.18925353	    131.75881398	     93.24406617	     68.96063716	     22.66312143	     69.00435711	    126.04498765	     74.99364470
      2.08333330	     -7.26064408	      6.36441914	     -3.34759871	      0.05619533	      0.78525580	      0.09556187	     42.76659259	      7.43795893	      0.79983905	     68.19793436	      1.19027850	     24.94724684	    -24.63774840	     -7.49999987	     50.18191390	     -4.65673940	     -8.86026569	      0.77146627	      0.01346463	    -26.56515281	    -11.56088256	     -7.49999987	    -25.26523213	      0.92139617	     -4.92059441	     54.97625768	      9.92979325	     66.97762135	    131.63587735	     90.95616114	     68.48425381	     22.71276278	     69.24828538	    126.06034250	     73.78266492
      2.10000000	     -7.14877879	      6.45408754	     -3.19118256	      0.05780599	      0.79178166	      0.09734719	     41.56661628	      7.20031868	      0.92014636	     66.35524108	      1.15811743	     23.73014347	    -24.76888889	     -7.49999987	     49.71283052	     -4.53395111	     -9.29821151	      0.81652035	      0.01425097	    -26.55423606	    -11.77953808	     -7.49999987	    -24.93080725	      0.84859581	     -4.59264096	     54.46492371	      9.94540871	     66.63591176	    131.75150925	     93.29281957	     68.30770772	     22.89332815	     69.53749542	    126.17496813	     75.09106626
      2.11666670	     -6.79384234	      6.46797761	     -3.06872157	      0.06162108	      0.79883231	      0.09971743	     39.97414556	      7.07822000	      0.96664519	     64.39309920	      1.12387160	     22.86046013	    -24.56224604	     -7.49999987	     48.95612161	     -4.45133231	     -9.21940483	      0.72479651	      0.01265009	    -25.62225936	    -11.23567464	     -7.49999987	    -24.33008234	      0.57385932	     -4.59319264	     54.92336332	     10.13908970	     66.90453497	    131.57560227	     92.77056044	     68.15670622	     22.78875835	     69.80590089	    125.88929512	     75.11397900
      2.13333330	     -7.12336984	      6.49570861	     -3.18922726	      0.06267700	      0.80411161	      0.09999890	     39.25821252	      7.11750408	      1.19627229	     62.60081625	      1.09259036	     22.29053750	    -23.92654183	     -7.49999987	     48.99861244	     -4.55986238	     -9.89126682	      0.66110233	      0.01153841	    -25.33699810	    -10.46333557	     -7.49999987	    -23.27981299	      0.35602343	     -4.23880900	     57.82337613	      9.68733341	     68.28902594	    131.75728588	     85.88527251	     68.13804490	     22.82050260	     70.34588154	    126.05604672	     71.18751631
